<?xml version="1.0" encoding="utf-8"?>
<!-- Generator: Adobe Illustrator 23.1.0, SVG Export Plug-In . SVG Version: 6.00 Build 0)  -->
<svg version="1.1" id="Layer_1" xmlns="http://www.w3.org/2000/svg" xmlns:xlink="http://www.w3.org/1999/xlink" x="0px" y="0px"
	 viewBox="0 0 1000 1000" style="enable-background:new 0 0 1000 1000;" xml:space="preserve">
<style type="text/css">
	.st0{fill:#FFFFFF;}
</style>
<title>bag</title>
<path class="st0" d="M881.7,264.5c0-30.6-24.1-55.6-53.9-55.6h-64.4c-1.9-4.2-4-8.3-6.3-12.4c-14.7-27-35.8-51-62.2-71.4
	c-52.6-40.4-121.9-62.6-195-62.6c-73.2,0-142.5,22.2-194.9,62.6c-26.5,20.5-47.5,44.5-62.3,71.5c-2.3,4.1-4.3,8.2-6.3,12.4H172
	c-29.8,0-53.9,24.9-53.9,55.6v94.1h763.5L881.7,264.5L881.7,264.5z M322,208.9c7.4-8.7,16.1-16.9,26.1-24.5
	c40.1-30.9,94-47.9,151.9-47.9c57.7,0,111.7,17.1,151.9,47.9c9.9,7.6,18.5,15.8,26.1,24.5H322z M900.1,762.7H99.6l18.6-382.3h763.5
	L900.1,762.7z M903.4,830h-807l2.6-50.5h801.8L903.4,830L903.4,830z M905.6,879.2c1.7,31.7-22.8,58.3-53.6,58.3H147.6
	c-30.7,0-55.2-26.6-53.6-58.3l1.7-32.3H904L905.6,879.2L905.6,879.2z"/>
</svg>
