<?xml version="1.0" encoding="utf-8"?>
<!-- Generator: Adobe Illustrator 23.1.0, SVG Export Plug-In . SVG Version: 6.00 Build 0)  -->
<svg version="1.1" id="Layer_1" xmlns="http://www.w3.org/2000/svg" xmlns:xlink="http://www.w3.org/1999/xlink" x="0px" y="0px"
	 viewBox="0 0 1000 1000" style="enable-background:new 0 0 1000 1000;" xml:space="preserve">
<style type="text/css">
	.st0{fill:#F10909;}
</style>
<title>cart-alt</title>
<path class="st0" d="M820.3,582.1H420.5c-6,0-12.7-4.4-15.1-9.8L222,152.8c-2.4-5.4-9.1-9.8-15.1-9.8H73.2c-6,0-10.8,4.8-10.8,10.8
	v33.4c0,6,4.8,10.8,10.8,10.8H171c6,0,12.7,4.4,15.1,9.8l183.5,419.5c2.4,5.4,9.1,9.8,15.1,9.8h435.6c6,0,10.8-4.8,10.8-10.8v-33.4
	C831,587,826.2,582.1,820.3,582.1L820.3,582.1z M474.2,692c-45.5,0-82.3,36.8-82.3,82.3s36.9,82.3,82.3,82.3s82.3-36.8,82.3-82.3
	S519.6,692,474.2,692L474.2,692z M748.7,692c-45.5,0-82.3,36.8-82.3,82.3s36.9,82.3,82.3,82.3s82.3-36.8,82.3-82.3
	S794.1,692,748.7,692z M930.1,252.8H347.7c-6,0-8.9,4.5-6.7,10l14,35c2.2,5.5,8.8,10,14.7,10H908c6,0,12.5-4.5,14.7-10l14-35
	C939,257.2,935.9,252.8,930.1,252.8z M842.2,472.3H435.5c-6,0-8.9,4.5-6.7,10l14,35c2.2,5.5,8.8,10,14.7,10h362.8
	c6,0,12.5-4.5,14.7-10l14-35C851.1,476.8,848.2,472.3,842.2,472.3z M886.1,362.5H391.6c-6,0-8.9,4.5-6.7,10l14,35
	c2.2,5.5,8.8,10,14.7,10h450.6c6,0,12.5-4.5,14.7-10l14-35C895.1,367,892.1,362.5,886.1,362.5z"/>
</svg>
