<?xml version="1.0" encoding="utf-8"?>
<!-- Generator: Adobe Illustrator 23.1.0, SVG Export Plug-In . SVG Version: 6.00 Build 0)  -->
<svg version="1.1" id="Layer_1" xmlns="http://www.w3.org/2000/svg" xmlns:xlink="http://www.w3.org/1999/xlink" x="0px" y="0px"
	 viewBox="0 0 1000 1000" style="enable-background:new 0 0 1000 1000;" xml:space="preserve">
<style type="text/css">
	.st0{fill:#FFFFFF;}
</style>
<title>login</title>
<path class="st0" d="M719.4,517.4c9.4-9.6,9.4-25.3,0-34.9L433.6,188.3c-9.4-9.6-24.5-9.6-33.9,0l-56.8,58.5
	c-9.4,9.6-9.4,25.3,0,34.9l135.2,139.1H114c-13.2,0-24,11-24,24.7v98.6c0,13.6,10.8,24.7,24,24.7h374.1L342.9,718.3
	c-9.4,9.6-9.4,25.3,0,34.9l56.8,58.5c9.4,9.6,24.5,9.6,33.9,0L719.4,517.4L719.4,517.4z M581.6,184h206.5v632.1H581.6v121.4h267.2
	c33.6,0,60.7-27.1,60.7-60.8V123.3c0-33.6-27.1-60.8-60.7-60.8H581.6V184L581.6,184z"/>
</svg>
