<?xml version="1.0" encoding="utf-8"?>
<!-- Generator: Adobe Illustrator 23.1.0, SVG Export Plug-In . SVG Version: 6.00 Build 0)  -->
<svg version="1.1" id="Layer_1" xmlns="http://www.w3.org/2000/svg" xmlns:xlink="http://www.w3.org/1999/xlink" x="0px" y="0px"
	 viewBox="0 0 302.78 304" style="enable-background:new 0 0 302.78 304;" xml:space="preserve">
<style type="text/css">
	.st0{fill:none;stroke:#FFFFFF;stroke-width:2.3291;stroke-miterlimit:10;}
	.st1{fill:#F10909;}
	.st2{fill:#F2F2F2;}
	.st3{fill:#8FCE21;}
	.st4{fill:#7AC943;}
	.st5{fill:#FCBA00;}
	.st6{fill:#EFD259;}
	.st7{fill:#F70606;}
</style>
<g>
</g>
<circle class="st0" cx="151.39" cy="152" r="150.23"/>
<g>
	<path class="st1" d="M61.62,228.77c-0.96-2.01-0.89-5.33,2.06-10.59c4.25-7.55,11.8-20.91,16.8-32.26c0.27-0.69,0.55-0.76,1.1-0.14
		c0.96,1.04,1.78,3.46,0.27,7.68c-3.36,9.42-13.03,27.28-18.59,35.38C62.65,229.74,62.03,229.6,61.62,228.77z"/>
</g>
<g>
	<path class="st2" d="M97.52,223.72c4.02-0.34,6.37,1.17,7.38,3.61c0.34,0.75,0.25,1.26-0.84,1.26c-5.28,0-13.92,1.84-19.79,3.44
		c-2.18,0.59-3.27,0.75-4.19-0.75c-0.59-0.92-1.68-2.52-2.01-3.44c-0.67-1.68-0.92-2.52,0.42-4.53c6.96-10.23,27.59-30.19,40-38.65
		c-3.77,0.59-9.64,2.01-13.16,2.43c-5.53,0.59-7.96-1.51-8.89-4.28c-0.25-0.75,0-1.26,0.92-1.26c6.2,0.17,14.84-1.93,19.45-2.26
		c1.76-0.17,2.85,0,3.94,1.43c1.17,1.51,2.1,3.52,2.77,5.45c0.59,1.68,0.08,2.43-1.93,3.86c-12.41,8.89-28.84,24.65-38.91,36.56
		C86.87,225.48,93.33,224.05,97.52,223.72z"/>
</g>
<g>
	<path class="st2" d="M126.22,202.97c2.35-0.2,3.72,0.69,4.3,2.1c0.2,0.44,0.15,0.73-0.49,0.73c-3.08,0-8.12,1.08-11.54,2
		c-1.27,0.34-1.91,0.44-2.45-0.44c-0.34-0.54-0.98-1.47-1.17-2c-0.39-0.98-0.54-1.47,0.24-2.64c4.06-5.97,16.09-17.61,23.33-22.54
		c-2.2,0.34-5.62,1.17-7.68,1.42c-3.23,0.34-4.65-0.88-5.18-2.49c-0.15-0.44,0-0.73,0.54-0.73c3.62,0.1,8.66-1.12,11.35-1.32
		c1.03-0.1,1.66,0,2.3,0.83c0.68,0.88,1.22,2.05,1.61,3.18c0.34,0.98,0.05,1.42-1.12,2.25c-7.24,5.18-16.82,14.38-22.69,21.32
		C120.01,204,123.78,203.17,126.22,202.97z"/>
</g>
<g>
	<path class="st2" d="M39.44,164.46c-0.5-1.23-0.3-1.9,1-2.01c8.3-1.01,15.8-5.7,22.59-6.04c5.1-0.22,9.5,1.57,11.9,9.28
		c2.1,6.71,0.4,13.19-3,19.12c-5,8.72-15.8,17.11-28.89,19.9c-2.3,0.45-4.5,0-6.2-1.12c-2.8,6.15-5.8,13.53-9.3,22.81
		c-0.4,1.12-0.9,1.12-1.6,0.34c-1.4-1.68-2.4-5.03-0.9-11.07c2.6-10.17,12-31.19,20.7-46.51C42.34,168.71,40.44,166.81,39.44,164.46
		z M70.63,166.69c-2.1-6.15-12.1-0.34-18.7,1.79c0,3.02-1,6.93-3.8,12.3c-2.6,5.14-5.4,10.29-8.4,16.55
		C62.14,192.63,73.33,174.52,70.63,166.69z"/>
</g>
<g>
	<path class="st2" d="M135.84,219.26c-2.34,4.28-4.37,8.38-5.93,12.07c-0.31,0.75-1.01,0.75-1.41,0.17
		c-0.94-1.34-1.25-3.86,0.39-8.55c0.47-1.26,1.17-2.93,2.11-4.78c-1.72-1.01-2.34-2.26-2.58-2.85c-0.39-1.09-0.23-1.42,0.94-1.26
		c1.09,0.17,2.26,0.33,3.51,0.42c6.09-11.4,16.94-28,25.22-35.3c1.25-1.09,2.03-1.09,2.81,0.08c0.78,1.17,1.01,1.34,1.8,3.44
		c0.78,2.01,0.7,3.86,0,6.12c-2.03,6.62-4.22,15.18-5.7,24.4c2.34,0.84,3.2,2.52,3.51,4.28c0.16,0.75-0.16,1.01-0.86,0.75
		c-0.94-0.25-2.03-0.42-3.36-0.5c-0.55,4.36-1.01,8.97-1.17,13.42c0,0.84-0.47,1.09-1.17,0.75c-1.56-0.75-2.81-2.85-2.89-7.63
		c0-1.68,0.08-3.86,0.31-6.37C145.83,218.34,139.51,219.35,135.84,219.26z M152,212.81c1.17-8.72,3.36-19.29,5.78-25.83
		c-5.93,7.13-13.04,17.27-18.97,27.25C143.57,213.81,148.33,212.89,152,212.81z"/>
</g>
<path class="st3" d="M86.36,169.78c-0.97-0.2-1.99-0.17-2.93,0.14c-0.89,0.3-1.65,0.81-1.95,1.91c-0.29,1.06,0.31,1.89,1.35,2.16
	c2.53,0.64,4.96,1.57,7.46,2.27c1.56,0.44,3.24-0.25,3.87-1.84c0.67-1.69-0.76-2.44-2.09-3.03
	C90.26,170.58,88.32,170.18,86.36,169.78z"/>
<g>
	<path class="st2" d="M180.41,174.15c-0.56-1.23-0.22-1.79,1.12-1.9c7.83-0.67,17.89-6.15,25.38-6.6c5.7-0.33,11.18,1.45,13.19,9.06
		c2.01,7.49-0.11,13.75-3.91,18.67c-3.24,4.14-9.17,9.73-17.44,13.3c2.12,1.01,3.91,2.57,5.37,4.7c2.35,3.47,2.24,10.06-2.57,15.32
		c-4.92,5.37-13.3,9.28-19.57,10.4c-4.25,0.78-6.93,0.67-9.39-0.56c-2.24-1.12-4.25-3.02-5.7-5.14c-1.68-2.46-2.79-4.25-0.22-11.4
		c4.47-12.52,12.97-28.84,21.35-41.37C183.54,178.4,181.19,175.94,180.41,174.15z M186.78,209.93c-3.13,0.34-5.37,0-6.93-0.78
		c-3.02,5.81-5.81,11.74-7.49,17.33c-1.23,3.91,0,5.25,3.58,4.81c7.16-0.89,16.77-5.48,21.58-11.4c4.14-5.14,4.14-10.17-6.04-10.73
		C189.91,209.48,188.35,209.7,186.78,209.93z M215.96,175.72c-2.24-5.81-13.3-0.67-21.02,1.79c0.22,2.46-0.56,5.81-3.35,10.96
		c-2.24,4.14-5.48,9.39-8.72,15.09C205.01,198.41,218.76,183.32,215.96,175.72z"/>
</g>
<g>
	<path class="st2" d="M259.44,181c0.78,2.79,1.57,7.6,2.35,13.3c8.94-9.17,17.89-17.78,23.48-22.92c2.35-2.24,3.91-1.34,4.47,1.01
		c0.67,3.24-0.56,8.83-7.6,15.76c-6.26,6.04-12.19,11.63-18.67,18.11c1.79,12.52,4.03,25.94,7.94,32.2
		c1.45,2.35-0.11,3.24-2.24,3.02c-4.81-0.33-9.62-3.35-12.41-14.65c-1.01-4.25-1.57-6.71-2.35-11.29
		c-7.83,8.16-15.76,17.11-21.47,25.16c-1.45,1.9-3.24,1.45-3.91-0.45c-0.45-1.12-0.67-2.24-0.67-3.35c0-2.12,1.01-5.25,3.24-8.72
		c3.13-4.7,11.52-14.31,21.02-24.26c-1.56-10.62-3.24-21.24-5.48-30.86c-0.45-1.68,0.89-2.57,2.79-2.24
		C253.18,171.38,257.31,173.62,259.44,181z"/>
</g>
<g>
	<path class="st2" d="M66.47,57.34c-0.3,0.33-0.6,0.66-0.9,1c8.37,7.69,16.76,15.35,25.09,23.07c10,9.28,9.59,11.84-4.87,20.32
		c-9.14-10.46-18.68-21.37-28.22-32.28c-0.73,0.74-1.46,1.47-2.19,2.21c8.85,11.78,17.2,24,26.87,35.05
		c2.57,2.93,9.14,2.58,13.94,3.22c3.39,0.46,8.15-1.42,10.12,0.28c8.3,7.18,15.78,15.31,23.56,23.1c-0.32,0.95-0.64,1.9-0.97,2.85
		c-29,0-58,0-86.99,0c0.04,1.11,0.07,2.23,0.11,3.34c75.87,0,151.73,0,227.6,0c0.04-1.34,0.09-2.68,0.13-4.02
		c-31.35,0-62.7,0-94.05,0c-0.13-1.05-0.27-2.1-0.4-3.15c9.36-7.76,18.73-15.52,28.48-23.61c3.27,3.59,5.66,7.13,8.9,9.46
		c2.26,1.62,6.8,3.19,8.46,2.05c16.78-11.57,33.18-23.7,50.8-36.48c-12.09-13.83-23.06-25.99-33.56-38.54
		c-5.37-6.42-9.37-5.62-14.28,0.41c-7.33,9-15.03,17.69-22.76,26.34c-4.68,5.23-13.21,9.9-13.6,15.28
		c-0.39,5.39,7.2,11.36,11.79,17.77c-8.95,7.88-17.76,16.38-27.4,23.79c-4.34,3.34-10.16,5.36-15.61,6.5
		c-11.96,2.51-21.66-1.65-29.31-11.44c-3.89-4.97-8.84-9.15-13.49-13.49c-4.03-3.77-6.5-7.05-4.18-13.52
		c1.26-3.51-0.67-10.57-3.6-12.78C93.27,74.52,79.71,66.15,66.47,57.34z"/>
	<path class="st2" d="M251.03,73.99c-1.11-1.33-2.23-2.66-3.34-3.99c-12.03,10.04-24.05,20.08-36.08,30.11
		c0.96,1.13,1.91,2.27,2.87,3.4C226.67,93.67,238.85,83.83,251.03,73.99z M217.8,106.82c0.83,1.26,1.65,2.52,2.48,3.78
		c12.79-9.18,25.58-18.35,38.36-27.53c-0.98-1.37-1.97-2.73-2.95-4.1C243.06,88.26,230.43,97.54,217.8,106.82z M205.42,93.57
		c0.97,1.01,1.94,2.02,2.91,3.04c11.59-10.56,23.17-21.13,34.76-31.69c-1.25-1.31-2.5-2.61-3.75-3.92
		C228.03,71.86,216.73,82.72,205.42,93.57z M234.85,55.74c-6.93-2.74-28.47,18.72-32.1,33.94
		C213.23,78.59,223.71,67.51,234.85,55.74z"/>
</g>
<g>
	<path class="st4" d="M223.8,203.1c0,1.55,0,3.1,0,4.65c0,0.4-0.03,0.42-0.38,0.21c-2.68-1.55-5.36-3.1-8.05-4.64
		c-0.23-0.13-0.29-0.24-0.12-0.48c1.86-2.72,4.43-4.3,7.69-4.75c0.16-0.02,0.32-0.03,0.48-0.05c0.33-0.04,0.38,0,0.38,0.35
		C223.8,199.96,223.8,201.53,223.8,203.1z M219.48,202.31c-0.01-0.57-0.49-1.05-1.06-1.05c-0.56,0-1.06,0.5-1.06,1.06
		c0,0.57,0.49,1.06,1.05,1.07C219.01,203.39,219.49,202.9,219.48,202.31z M221.7,205.38c0.36,0,0.67-0.3,0.69-0.67
		c0.01-0.38-0.29-0.69-0.68-0.69c-0.39,0-0.67,0.27-0.68,0.65C221.02,205.07,221.31,205.37,221.7,205.38 M222.04,200.92
		c0.38,0,0.68-0.29,0.69-0.66c0.01-0.38-0.31-0.7-0.69-0.7c-0.38,0-0.69,0.32-0.68,0.7C221.37,200.63,221.67,200.92,222.04,200.92z
		 M222.09,202.77c0.1-0.02,0.31-0.03,0.39-0.23c0.09-0.21-0.1-0.32-0.23-0.44c-0.16-0.15-0.35-0.24-0.56-0.28
		c-0.19-0.04-0.38-0.04-0.54,0.1c-0.19,0.15-0.18,0.34,0.04,0.45c0.18,0.09,0.35,0.19,0.5,0.32
		C221.79,202.75,221.89,202.79,222.09,202.77z"/>
	<path class="st5" d="M225.65,206.55c0-1.58,0-3.16,0-4.74c0-1.57,0-3.14,0-4.71c0-0.25,0.07-0.37,0.34-0.34
		c2.57,0.22,4.8,1.21,6.67,2.98c0.59,0.55,1.09,1.18,1.55,1.85c0.14,0.21,0.12,0.31-0.1,0.44c-2.72,1.56-5.44,3.13-8.15,4.7
		C225.69,206.88,225.65,206.85,225.65,206.55"/>
	<path class="st4" d="M235.03,208.75c-0.03,1.72-0.39,3.33-1.14,4.86c-0.12,0.24-0.23,0.26-0.46,0.13c-2.65-1.54-5.31-3.07-7.97-4.6
		c-0.31-0.18-0.31-0.2,0-0.37c2.71-1.56,5.42-3.13,8.12-4.7c0.21-0.12,0.31-0.08,0.41,0.13
		C234.68,205.65,234.99,207.18,235.03,208.75z M232.85,209.48c0.57,0,1.06-0.5,1.06-1.06c0-0.57-0.49-1.06-1.06-1.07
		c-0.58-0.01-1.08,0.5-1.07,1.08C231.79,209,232.29,209.49,232.85,209.48z M232.48,212.34c0.4,0,0.69-0.29,0.68-0.68
		c-0.01-0.36-0.31-0.67-0.68-0.67c-0.35-0.01-0.68,0.32-0.69,0.67C231.78,212.03,232.09,212.34,232.48,212.34z M228.98,208.24
		c-0.4,0-0.7,0.29-0.7,0.67c0,0.36,0.32,0.68,0.67,0.69c0.38,0.01,0.69-0.3,0.69-0.69C229.64,208.52,229.37,208.24,228.98,208.24z"
		/>
	<path class="st4" d="M213.45,208.54c0.01-1.36,0.35-2.88,1.03-4.34c0.09-0.21,0.18-0.27,0.4-0.14c2.71,1.57,5.42,3.13,8.13,4.69
		c0.3,0.17,0.3,0.2-0.01,0.38c-2.65,1.53-5.3,3.06-7.94,4.59c-0.24,0.14-0.35,0.11-0.48-0.14
		C213.87,212.16,213.45,210.43,213.45,208.54z M217.8,209.19c-0.01-0.59-0.48-1.05-1.05-1.05c-0.58,0.01-1.04,0.48-1.04,1.06
		c0,0.59,0.46,1.06,1.04,1.06C217.34,210.27,217.81,209.79,217.8,209.19z M219.87,208.15c-0.38,0-0.67,0.31-0.66,0.7
		c0.01,0.38,0.3,0.67,0.66,0.67c0.37,0,0.7-0.32,0.7-0.69C220.56,208.47,220.24,208.15,219.87,208.15z M215.66,206.83
		c0.39,0,0.68-0.3,0.68-0.69c0-0.37-0.3-0.66-0.68-0.67c-0.38,0-0.67,0.28-0.68,0.66C214.98,206.52,215.27,206.83,215.66,206.83z
		 M215.16,211.72c0.34-0.06,0.69-0.16,1.03-0.33c0.09-0.05,0.23-0.1,0.2-0.23c-0.04-0.15-0.19-0.15-0.3-0.12
		c-0.35,0.11-0.7,0.23-1.05,0.35c-0.09,0.03-0.17,0.1-0.14,0.2C214.91,211.73,215.03,211.71,215.16,211.72z"/>
	<path class="st4" d="M223.8,214.64c0,1.51,0,3.02,0,4.52c0,0.37-0.03,0.41-0.4,0.37c-3.37-0.33-6.04-1.86-8.02-4.61
		c-0.15-0.21-0.08-0.3,0.11-0.42c2.67-1.54,5.35-3.08,8.02-4.63c0.25-0.15,0.29-0.12,0.29,0.2
		C223.8,211.6,223.8,213.12,223.8,214.64z M220.61,215.12c-0.61,0-1.05,0.44-1.06,1.04c0,0.59,0.46,1.05,1.05,1.06
		c0.58,0,1.05-0.46,1.06-1.05C221.66,215.58,221.2,215.12,220.61,215.12z M217.5,214.28c-0.39,0-0.69,0.28-0.69,0.67
		c0,0.37,0.32,0.69,0.69,0.69c0.37,0,0.66-0.29,0.67-0.67C218.17,214.57,217.9,214.29,217.5,214.28z M222.73,213.12
		c-0.01-0.37-0.34-0.69-0.7-0.68c-0.35,0.01-0.67,0.33-0.67,0.68c0,0.36,0.33,0.7,0.69,0.7
		C222.4,213.82,222.73,213.48,222.73,213.12z"/>
	<path class="st4" d="M224.68,214.64c0-1.52,0-3.04,0-4.56c0-0.33,0.02-0.34,0.31-0.18c2.67,1.54,5.33,3.08,8,4.61
		c0.21,0.12,0.23,0.23,0.09,0.42c-1.79,2.48-4.17,4-7.19,4.49c-0.26,0.04-0.52,0.08-0.78,0.1c-0.41,0.04-0.43,0.01-0.43-0.39
		C224.68,217.64,224.68,216.14,224.68,214.64z M227.83,213.87c0-0.59-0.44-1.06-1.03-1.07c-0.57-0.02-1.06,0.46-1.06,1.04
		c-0.01,0.6,0.45,1.08,1.05,1.09C227.36,214.92,227.82,214.46,227.83,213.87z M226.29,216.58c-0.38,0-0.67,0.29-0.67,0.67
		c-0.01,0.39,0.29,0.69,0.68,0.69c0.39,0,0.68-0.31,0.67-0.7C226.96,216.87,226.67,216.58,226.29,216.58z M231.32,215.05
		c-0.01-0.38-0.29-0.65-0.68-0.65c-0.39,0-0.69,0.3-0.68,0.69c0.01,0.36,0.33,0.67,0.69,0.67
		C231.04,215.75,231.33,215.44,231.32,215.05z"/>
	<path class="st6" d="M225.97,194.11c2.81,0.18,5.32,1.15,7.53,2.9c1.11,0.89,2.04,1.93,2.82,3.12c0.14,0.22,0.15,0.33-0.1,0.46
		c-0.4,0.21-0.79,0.44-1.18,0.68c-0.19,0.12-0.3,0.11-0.43-0.09c-1.19-1.81-2.77-3.17-4.74-4.08c-1.23-0.56-2.52-0.89-3.87-0.98
		c-0.25-0.02-0.36-0.09-0.35-0.36c0.02-0.45,0.01-0.91,0-1.36C225.64,194.18,225.72,194.06,225.97,194.11z"/>
	<path class="st4" d="M223.8,196.56c0,0.23-0.01,0.46,0,0.69c0.01,0.21-0.08,0.3-0.3,0.32c-2.26,0.14-4.29,0.92-6.1,2.28
		c-1,0.76-1.85,1.67-2.54,2.72c-0.14,0.22-0.25,0.29-0.5,0.13c-0.38-0.25-0.78-0.47-1.17-0.68c-0.19-0.1-0.24-0.2-0.11-0.4
		c2.08-3.13,4.95-5.09,8.63-5.84c0.56-0.12,1.13-0.16,1.7-0.23c0.27-0.03,0.4,0.05,0.38,0.34
		C223.78,196.11,223.8,196.33,223.8,196.56z"/>
	<path class="st4" d="M210.98,208.82c0.02-2.05,0.45-4,1.36-5.85c0.13-0.26,0.24-0.29,0.47-0.14c0.38,0.24,0.78,0.46,1.17,0.68
		c0.2,0.11,0.21,0.22,0.12,0.41c-0.8,1.65-1.16,3.39-1.11,5.23c0.05,1.59,0.41,3.1,1.11,4.53c0.27,0.55,0.23,0.42-0.22,0.69
		c-0.35,0.21-0.72,0.41-1.07,0.62c-0.17,0.1-0.26,0.08-0.35-0.1c-0.71-1.38-1.17-2.84-1.37-4.38
		C211.02,209.94,210.97,209.38,210.98,208.82z"/>
	<path class="st4" d="M237.5,208.69c-0.04,2.24-0.5,4.24-1.46,6.11c-0.12,0.23-0.22,0.29-0.45,0.14c-0.36-0.23-0.74-0.45-1.12-0.65
		c-0.25-0.13-0.29-0.25-0.16-0.51c0.55-1.06,0.89-2.19,1.06-3.38c0.32-2.22-0.01-4.34-0.93-6.38c-0.18-0.39-0.18-0.39,0.18-0.59
		c0.36-0.21,0.74-0.41,1.09-0.64c0.2-0.13,0.31-0.1,0.41,0.12c0.59,1.21,0.99,2.48,1.21,3.81
		C237.44,207.42,237.47,208.13,237.5,208.69z"/>
	<path class="st4" d="M223.8,221.02c0,0.23-0.01,0.46,0,0.69c0.01,0.24-0.09,0.32-0.33,0.3c-1.02-0.07-2.02-0.23-2.99-0.52
		c-3.02-0.92-5.43-2.69-7.23-5.29c-0.17-0.24-0.15-0.37,0.11-0.5c0.38-0.2,0.76-0.42,1.12-0.65c0.22-0.14,0.34-0.1,0.48,0.11
		c1.32,1.92,3.07,3.3,5.24,4.14c1.03,0.4,2.09,0.65,3.19,0.7c0.28,0.01,0.41,0.1,0.38,0.39C223.78,220.6,223.8,220.81,223.8,221.02z
		"/>
	<path class="st4" d="M224.68,221.01c0-0.22,0.01-0.44,0-0.66c-0.01-0.24,0.09-0.34,0.33-0.35c1.2-0.06,2.35-0.33,3.45-0.78
		c2.03-0.83,3.69-2.15,4.96-3.94c0.27-0.38,0.26-0.38,0.68-0.14c0.36,0.21,0.71,0.42,1.07,0.62c0.21,0.11,0.21,0.22,0.08,0.4
		c-1.36,2-3.12,3.54-5.3,4.59c-1.49,0.72-3.07,1.13-4.72,1.27c-0.07,0.01-0.14,0-0.21,0.01c-0.26,0.04-0.37-0.07-0.35-0.34
		C224.69,221.46,224.68,221.24,224.68,221.01z"/>
</g>
<path class="st3" d="M228.46,202.7c0.21,0.06,0.43-0.03,0.52-0.26c0.09-0.24-0.1-0.34-0.28-0.43c-0.24-0.11-0.5-0.17-0.76-0.23
	c-0.13-0.03-0.27-0.02-0.39,0.02c-0.12,0.04-0.22,0.11-0.26,0.27c-0.04,0.15,0.04,0.27,0.18,0.3
	C227.8,202.47,228.12,202.6,228.46,202.7"/>
<path class="st7" d="M231.84,202.64c-0.01-0.38-0.29-0.66-0.68-0.65c-0.39,0-0.69,0.3-0.68,0.69c0.01,0.36,0.33,0.67,0.69,0.67
	C231.55,203.34,231.85,203.03,231.84,202.64"/>
<path class="st7" d="M228.5,199.62c-0.39,0-0.69,0.3-0.68,0.69c0.01,0.36,0.33,0.67,0.69,0.67c0.38,0,0.68-0.31,0.67-0.71
	C229.17,199.9,228.88,199.62,228.5,199.62z"/>
<g>
</g>
<g>
</g>
<g>
</g>
<g>
</g>
<g>
</g>
<g>
</g>
<g>
</g>
<g>
</g>
<g>
</g>
<g>
</g>
<g>
</g>
<g>
</g>
<g>
</g>
<g>
</g>
<g>
</g>
</svg>
