<?xml version="1.0" encoding="utf-8"?>
<!-- Generator: Adobe Illustrator 23.1.0, SVG Export Plug-In . SVG Version: 6.00 Build 0)  -->
<svg version="1.1" id="Layer_1" xmlns="http://www.w3.org/2000/svg" xmlns:xlink="http://www.w3.org/1999/xlink" x="0px" y="0px"
	 viewBox="0 0 179.61 189.09" style="enable-background:new 0 0 179.61 189.09;" xml:space="preserve">
<style type="text/css">
	.st0{fill:#7AC943;}
	.st1{fill:#FCBA00;}
	.st2{fill:#EFD259;}
	.st3{fill:#8FCE21;}
	.st4{fill:#F70606;}
</style>
<g>
	<path class="st0" d="M86.83,60.93c0,10.49,0,20.98,0,31.47c0,2.72-0.2,2.82-2.56,1.45C66.11,83.36,47.95,72.86,29.77,62.42
		c-1.59-0.91-1.95-1.59-0.82-3.24C41.57,40.79,58.92,30.08,80.99,27c1.08-0.15,2.17-0.21,3.25-0.33c2.26-0.25,2.59,0.01,2.59,2.38
		C86.84,39.68,86.83,50.3,86.83,60.93z M57.62,55.58c-0.04-3.89-3.3-7.12-7.19-7.12c-3.8,0-7.15,3.37-7.16,7.2
		c-0.01,3.83,3.34,7.21,7.14,7.22C54.39,62.9,57.66,59.58,57.62,55.58z M72.6,76.38c2.45,0.03,4.56-2.02,4.65-4.51
		c0.09-2.6-1.94-4.68-4.59-4.69c-2.64-0.01-4.56,1.83-4.6,4.42C68.01,74.27,69.99,76.35,72.6,76.38 M74.93,46.18
		c2.55-0.01,4.61-1.99,4.65-4.47c0.04-2.57-2.08-4.72-4.65-4.72c-2.58,0-4.69,2.14-4.62,4.72C70.36,44.22,72.4,46.19,74.93,46.18z
		 M75.3,58.75c0.66-0.15,2.11-0.2,2.67-1.58c0.6-1.45-0.68-2.19-1.55-3c-1.06-0.99-2.36-1.6-3.76-1.92
		c-1.29-0.3-2.57-0.24-3.67,0.65c-1.29,1.04-1.23,2.33,0.26,3.02c1.25,0.58,2.36,1.32,3.39,2.2C73.24,58.62,73.91,58.89,75.3,58.75z
		"/>
	<path class="st1" d="M99.34,84.31c-0.02-10.69-0.01-21.38-0.01-32.08c0-10.62,0.02-21.25-0.02-31.87
		c-0.01-1.72,0.45-2.47,2.33-2.31c17.38,1.52,32.47,8.16,45.16,20.16c3.97,3.76,7.39,7.99,10.47,12.51
		c0.96,1.41,0.85,2.11-0.66,2.97c-18.42,10.58-36.81,21.22-55.21,31.84C99.64,86.54,99.35,86.38,99.34,84.31"/>
	<path class="st0" d="M162.86,99.23c-0.2,11.64-2.65,22.56-7.75,32.88c-0.82,1.66-1.54,1.79-3.1,0.89
		c-17.96-10.43-35.96-20.79-53.94-31.18c-2.08-1.2-2.08-1.32-0.01-2.52c18.33-10.6,36.68-21.17,55-31.8
		c1.45-0.84,2.07-0.55,2.76,0.89C160.51,78.2,162.64,88.58,162.86,99.23z M148.14,104.18c3.85-0.03,7.16-3.36,7.16-7.21
		c0-3.84-3.31-7.18-7.16-7.21c-3.91-0.04-7.33,3.4-7.26,7.31C140.95,100.92,144.3,104.21,148.14,104.18z M145.6,123.52
		c2.72,0,4.67-1.95,4.62-4.63c-0.04-2.46-2.12-4.52-4.62-4.56c-2.36-0.04-4.62,2.16-4.68,4.54
		C140.86,121.43,142.96,123.51,145.6,123.52z M121.94,95.77c-2.69-0.03-4.77,1.95-4.75,4.53c0.02,2.41,2.15,4.61,4.54,4.66
		c2.56,0.06,4.66-2.03,4.66-4.65C126.37,97.68,124.53,95.8,121.94,95.77z"/>
	<path class="st0" d="M16.77,97.8c0.08-9.18,2.4-19.53,6.95-29.38c0.64-1.39,1.22-1.83,2.73-0.95
		C44.78,78.1,63.14,88.67,81.48,99.26c2.03,1.18,2.03,1.38-0.04,2.58c-17.92,10.37-35.86,20.71-53.77,31.1
		c-1.61,0.94-2.37,0.76-3.23-0.96C19.6,122.32,16.78,110.62,16.77,97.8z M46.25,102.2c-0.03-3.97-3.22-7.13-7.13-7.1
		c-3.94,0.04-7.05,3.22-7.04,7.21c0,3.97,3.14,7.17,7.05,7.19C43.13,109.53,46.28,106.29,46.25,102.2z M60.21,95.16
		c-2.58,0.02-4.54,2.08-4.5,4.76c0.04,2.55,2.01,4.55,4.49,4.57c2.49,0.02,4.72-2.18,4.72-4.66C64.93,97.35,62.71,95.15,60.21,95.16
		z M31.74,86.22c2.61,0.01,4.63-2.04,4.62-4.69c-0.01-2.51-2.03-4.5-4.58-4.51c-2.56-0.01-4.55,1.92-4.61,4.47
		C27.11,84.14,29.11,86.21,31.74,86.22z M28.34,119.32c2.29-0.4,4.7-1.09,6.96-2.22c0.64-0.32,1.55-0.68,1.33-1.57
		c-0.25-1.02-1.31-1.02-2.04-0.8c-2.4,0.71-4.76,1.56-7.11,2.4c-0.58,0.21-1.13,0.66-0.98,1.37
		C26.67,119.39,27.46,119.29,28.34,119.32z"/>
	<path class="st0" d="M86.83,139.09c0,10.21,0.01,20.42,0,30.63c0,2.52-0.19,2.75-2.69,2.51c-22.8-2.21-40.9-12.61-54.31-31.19
		c-1.04-1.43-0.55-2.06,0.76-2.81c18.11-10.42,36.2-20.88,54.3-31.32c1.71-0.99,1.95-0.82,1.96,1.34
		C86.84,118.54,86.83,128.81,86.83,139.09z M65.22,142.37c-4.12,0-7.13,2.95-7.16,7.03c-0.03,3.97,3.11,7.14,7.11,7.16
		c3.96,0.02,7.14-3.13,7.18-7.1C72.38,145.48,69.25,142.37,65.22,142.37z M44.19,136.69c-2.66-0.03-4.67,1.91-4.7,4.54
		c-0.03,2.51,2.15,4.68,4.66,4.65c2.53-0.03,4.49-1.98,4.54-4.51C48.73,138.66,46.87,136.72,44.19,136.69z M79.58,128.81
		c-0.04-2.47-2.32-4.68-4.77-4.61c-2.4,0.07-4.53,2.22-4.56,4.61c-0.03,2.44,2.23,4.72,4.67,4.72
		C77.39,133.52,79.62,131.27,79.58,128.81z"/>
	<path class="st0" d="M92.81,139.11c0-10.29-0.01-20.58,0-30.86c0-2.24,0.16-2.33,2.12-1.2c18.06,10.41,36.1,20.84,54.18,31.22
		c1.45,0.83,1.55,1.53,0.61,2.83c-12.09,16.8-28.24,27.08-48.72,30.42c-1.75,0.28-3.5,0.55-5.26,0.7c-2.77,0.25-2.93,0.08-2.93-2.66
		C92.8,159.41,92.81,149.26,92.81,139.11z M114.11,133.87c0.02-4.01-2.99-7.15-6.97-7.27c-3.88-0.11-7.15,3.08-7.21,7.04
		c-0.06,4.09,3.08,7.35,7.08,7.35C110.96,140.99,114.09,137.85,114.11,133.87z M103.68,152.26c-2.55,0.01-4.52,1.97-4.56,4.52
		c-0.04,2.64,1.98,4.68,4.62,4.67c2.61-0.01,4.61-2.08,4.57-4.74C108.27,154.2,106.24,152.25,103.68,152.26z M137.8,141.88
		c-0.04-2.56-1.98-4.42-4.6-4.42c-2.66,0.01-4.68,2.06-4.59,4.67c0.08,2.46,2.23,4.56,4.65,4.52
		C135.87,146.62,137.84,144.55,137.8,141.88z"/>
	<path class="st2" d="M101.51,0.07c19.02,1.25,36.05,7.76,50.98,19.67c7.52,6,13.84,13.08,19.12,21.12c0.97,1.48,1,2.25-0.7,3.12
		c-2.73,1.39-5.37,2.96-7.97,4.58c-1.31,0.82-2.05,0.74-2.95-0.62c-8.07-12.25-18.78-21.47-32.1-27.61
		c-8.31-3.82-17.05-6.05-26.18-6.61c-1.7-0.1-2.46-0.59-2.4-2.4c0.11-3.06,0.07-6.13,0.01-9.2C99.3,0.55,99.83-0.24,101.51,0.07z"/>
	<path class="st0" d="M86.83,16.65c0,1.57-0.05,3.14,0.01,4.7c0.06,1.45-0.52,2.06-2.01,2.15c-15.33,0.92-29.07,6.21-41.27,15.46
		c-6.79,5.14-12.55,11.3-17.2,18.44c-0.96,1.48-1.72,1.94-3.35,0.87c-2.56-1.68-5.26-3.16-7.95-4.61c-1.3-0.7-1.61-1.35-0.73-2.68
		c14.09-21.16,33.5-34.44,58.45-39.58c3.81-0.78,7.68-1.07,11.53-1.54c1.83-0.22,2.7,0.33,2.55,2.3
		C86.74,13.65,86.83,15.15,86.83,16.65z"/>
	<path class="st0" d="M0.01,99.68C0.15,85.8,3.07,72.57,9.2,60.06c0.86-1.75,1.61-1.97,3.21-0.97c2.59,1.63,5.26,3.14,7.96,4.6
		c1.33,0.72,1.45,1.47,0.81,2.78c-5.42,11.17-7.87,22.97-7.5,35.39c0.32,10.77,2.81,21,7.52,30.68c1.8,3.7,1.54,2.88-1.46,4.68
		c-2.39,1.44-4.86,2.76-7.24,4.21c-1.14,0.69-1.78,0.51-2.39-0.69c-4.8-9.36-7.93-19.23-9.29-29.65
		C0.33,107.3-0.06,103.5,0.01,99.68z"/>
	<path class="st0" d="M179.61,98.84c-0.26,15.16-3.38,28.69-9.89,41.41c-0.8,1.57-1.49,1.98-3.08,0.96c-2.46-1.58-5-3.06-7.6-4.39
		c-1.7-0.88-1.97-1.72-1.07-3.48c3.71-7.2,6.05-14.84,7.2-22.86c2.17-15.03-0.03-29.41-6.33-43.2c-1.19-2.61-1.19-2.61,1.21-4.01
		c2.47-1.44,4.99-2.8,7.41-4.33c1.37-0.87,2.07-0.67,2.79,0.81c3.99,8.2,6.74,16.78,8.19,25.78C179.2,90.25,179.39,95,179.61,98.84z
		"/>
	<path class="st0" d="M86.83,182.3c0,1.57-0.06,3.13,0.01,4.7c0.07,1.62-0.63,2.16-2.2,2.06c-6.88-0.46-13.66-1.54-20.25-3.55
		c-20.46-6.26-36.75-18.23-48.92-35.85c-1.14-1.65-1.04-2.48,0.76-3.4c2.6-1.33,5.13-2.82,7.6-4.39c1.49-0.95,2.29-0.69,3.28,0.75
		c8.95,12.97,20.81,22.31,35.51,28.01c6.95,2.69,14.15,4.41,21.63,4.73c1.88,0.08,2.76,0.7,2.61,2.67
		C86.74,179.44,86.83,180.87,86.83,182.3z"/>
	<path class="st0" d="M92.81,182.27c0-1.5,0.07-3-0.02-4.5c-0.1-1.65,0.58-2.32,2.22-2.4c8.1-0.4,15.89-2.24,23.38-5.31
		c13.78-5.65,24.99-14.55,33.61-26.71c1.81-2.55,1.79-2.57,4.58-0.97c2.42,1.39,4.8,2.87,7.26,4.17c1.42,0.75,1.4,1.47,0.57,2.7
		c-9.2,13.55-21.12,23.95-35.86,31.1c-10.1,4.9-20.8,7.64-31.96,8.61c-0.47,0.04-0.96,0.01-1.43,0.08
		c-1.78,0.26-2.51-0.47-2.38-2.28C92.89,185.27,92.81,183.77,92.81,182.27z"/>
</g>
<path class="st3" d="M118.37,58.26c1.42,0.42,2.93-0.23,3.5-1.75c0.6-1.6-0.69-2.32-1.89-2.88c-1.64-0.77-3.39-1.15-5.18-1.53
	c-0.88-0.19-1.8-0.16-2.65,0.13c-0.81,0.28-1.49,0.77-1.77,1.82c-0.27,1.01,0.28,1.8,1.22,2.05
	C113.91,56.71,116.11,57.6,118.37,58.26"/>
<path class="st4" d="M141.29,57.83c-0.04-2.57-1.98-4.44-4.59-4.43c-2.65,0.01-4.66,2.06-4.59,4.7c0.06,2.45,2.21,4.54,4.64,4.51
	C139.35,62.57,141.33,60.49,141.29,57.83"/>
<path class="st4" d="M118.64,37.4c-2.65,0.01-4.66,2.06-4.59,4.7c0.06,2.45,2.21,4.54,4.64,4.51c2.6-0.03,4.58-2.11,4.54-4.78
	C123.2,39.26,121.26,37.39,118.64,37.4z"/>
<g>
</g>
<g>
</g>
<g>
</g>
<g>
</g>
<g>
</g>
<g>
</g>
<g>
</g>
<g>
</g>
<g>
</g>
<g>
</g>
<g>
</g>
<g>
</g>
<g>
</g>
<g>
</g>
<g>
</g>
</svg>
