<?xml version="1.0" encoding="utf-8"?>
<!-- Generator: Adobe Illustrator 23.1.0, SVG Export Plug-In . SVG Version: 6.00 Build 0)  -->
<svg version="1.1" id="Layer_1" xmlns="http://www.w3.org/2000/svg" xmlns:xlink="http://www.w3.org/1999/xlink" x="0px" y="0px"
	 viewBox="0 0 64 64" style="enable-background:new 0 0 64 64;" xml:space="preserve">
<style type="text/css">
	.st0{fill-rule:evenodd;clip-rule:evenodd;fill:#FFFFFF;}
</style>
<g id="Pizza-piece_2_">
	<path class="st0" d="M59.11,57.12L33.67,0.58c-0.16-0.35-0.51-0.58-0.9-0.59c0,0-0.01,0-0.01,0c-0.38,0-0.73,0.22-0.9,0.57
		L4.9,56.39c-0.12,0.24-0.13,0.51-0.04,0.76c0.09,0.25,0.27,0.46,0.51,0.57c8.67,4.19,18.02,6.28,27.39,6.28
		c8.8,0,17.61-1.85,25.86-5.56C59.11,58.22,59.34,57.63,59.11,57.12z M32.73,3.36l20.88,46.41c-13.8,6.08-29.42,5.92-43.08-0.43
		L32.73,3.36z M7.14,56.35l2.52-5.22c7.26,3.38,15.06,5.09,22.88,5.09c7.45,0,14.9-1.55,21.89-4.64l2.44,5.43
		C40.92,63.89,22.91,63.65,7.14,56.35z"/>
	<path class="st0" d="M19.84,45.33c0.55,1.22,1.54,2.15,2.79,2.62c0.58,0.22,1.18,0.33,1.78,0.33c0.7,0,1.39-0.15,2.05-0.44h0
		c2.51-1.13,3.64-4.1,2.51-6.61c-1.13-2.51-4.1-3.64-6.61-2.51C19.83,39.85,18.71,42.82,19.84,45.33z M23.17,40.54
		c0.4-0.18,0.81-0.26,1.23-0.26c1.15,0,2.24,0.66,2.74,1.77c0.68,1.51,0,3.29-1.5,3.97c-0.73,0.33-1.54,0.35-2.29,0.07
		c-0.75-0.29-1.34-0.84-1.67-1.57C20.99,43,21.66,41.22,23.17,40.54z"/>
	<path class="st0" d="M38.12,37.75c0.4,0.15,0.82,0.23,1.24,0.23c0.49,0,0.98-0.1,1.44-0.31c0.85-0.38,1.5-1.08,1.83-1.95
		c0.33-0.87,0.3-1.83-0.08-2.68c-0.79-1.76-2.87-2.55-4.63-1.76c-0.85,0.38-1.5,1.08-1.84,1.95c-0.33,0.87-0.3,1.82,0.08,2.68
		C36.55,36.77,37.24,37.42,38.12,37.75z M37.95,33.95c0.14-0.37,0.42-0.67,0.79-0.83c0.2-0.09,0.41-0.13,0.61-0.13
		c0.57,0,1.12,0.33,1.37,0.88c0.16,0.37,0.18,0.77,0.03,1.15c-0.14,0.38-0.42,0.67-0.79,0.83l0,0c-0.36,0.16-0.77,0.17-1.15,0.03
		c-0.37-0.14-0.67-0.42-0.84-0.79C37.82,34.73,37.81,34.32,37.95,33.95z"/>
	<circle class="st0" cx="30.82" cy="23.25" r="2.5"/>
</g>
</svg>
